<?xml version="1.0" encoding="utf-8"?>
<!-- Generator: Adobe Illustrator 15.0.2, SVG Export Plug-In  -->
<!DOCTYPE svg [
	<!ENTITY ns_flows "http://ns.adobe.com/Flows/1.0/">
]>
<svg version="1.2" baseProfile="tiny"
	 xmlns="http://www.w3.org/2000/svg" xmlns:xlink="http://www.w3.org/1999/xlink" xmlns:a="http://ns.adobe.com/AdobeSVGViewerExtensions/3.0/"
	 x="0px" y="0px" width="160px" height="213px" viewBox="-0.429 -0.65 160 213" overflow="visible" xml:space="preserve">
<defs>
</defs>
<path fill-rule="evenodd" fill="#FEFEFC" d="M22.688,7.562c0,2.522,0,5.041,0,7.563c-2.522,0-5.041,0-7.563,0"/>
<path fill-rule="evenodd" fill="#F7F7F2" d="M30.251,0c-1.008,1.514,1.259,6.304,0,7.562c-1.259,1.26-6.049-1.008-7.563,0"/>
<path fill-rule="evenodd" fill="#8E8F63" d="M30.251,0c2.522,0,5.041,0,7.562,0c1.008,1.514-1.259,6.304,0,7.562
	c0.923,0.924,6.219-0.336,7.563,0c2.149,0.536,5.339,0,7.563,0c2.492,0,5.077-0.177,7.562,0c2.485,0.178,5.07,0,7.562,0
	c2.522,0,5.041,0,7.563,0c5.041,0,10.085,0,15.125,0c10.085,0,20.166,0,30.251,0c5.041,0,10.085,0,15.126,0c2.522,0,5.041,0,7.562,0
	c0,2.522,0,5.041,0,7.563c-2.522,0-5.041,0-7.562,0c-2.522,0-5.041,0-7.563,0s-5.041,0-7.563,0c-2.522,0-5.04,0-7.562,0
	c-10.085,0-20.166,0-30.251,0c-2.522,0-5.041,0-7.563,0s-5.041,0-7.563,0c-2.522,0-5.04,0-7.562,0s-5.041,0-7.562,0
	c-2.522,0-5.041,0-7.563,0s-5.041,0-7.563,0c-1.839,0-5.894-0.717-7.562,0c-0.949,0.406,0.794,6.769,0,7.562
	c-1.259,1.259-6.049-1.008-7.563,0c0-2.522,0-5.041,0-7.562c0-2.522,0-5.041,0-7.563c1.514-1.008,6.304,1.26,7.563,0
	C31.51,6.304,29.243,1.514,30.251,0z"/>
<path fill-rule="evenodd" fill="#71714D" d="M37.813,0c2.522,0,5.041,0,7.563,0s5.041,0,7.563,0c5.04,0,10.085,0,15.125,0
	c5.041,0,10.085,0,15.126,0c2.522,0,5.041,0,7.562,0c5.041,0,10.085,0,15.126,0c2.522,0,5.04,0,7.562,0c5.041,0,10.085,0,15.125,0
	c2.522,0,5.041,0,7.563,0c5.041,0,10.085,0,15.125,0c2.522,0,5.041,0,7.563,0c0,2.522,0,5.041,0,7.562c-2.522,0-5.041,0-7.563,0
	s-5.041,0-7.563,0c-2.522,0-5.041,0-7.562,0c-5.041,0-10.085,0-15.126,0c-10.085,0-20.166,0-30.251,0c-5.041,0-10.085,0-15.125,0
	c-2.522,0-5.041,0-7.563,0c-2.492,0-5.077,0.178-7.562,0c-2.485-0.177-5.07,0-7.562,0c-2.224,0-5.414,0.536-7.563,0
	c-1.344-0.336-6.64,0.924-7.563,0C36.555,6.304,38.822,1.514,37.813,0z"/>
<path fill-rule="evenodd" fill="#ACAE77" d="M143.692,15.126c0-2.522,0-5.041,0-7.563c2.522,0,5.041,0,7.563,0
	c0,2.522,0,5.041,0,7.563C148.733,15.126,146.215,15.126,143.692,15.126z"/>
<path fill-rule="evenodd" fill="#1A1A04" d="M151.255,15.126c0-2.522,0-5.041,0-7.563c2.522,0,5.041,0,7.563,0
	c0,2.522,0,5.041,0,7.563c0,5.04,0,10.084,0,15.125c0,5.041,0,10.085,0,15.126c0,2.522,0,5.04,0,7.562c0,5.041,0,10.085,0,15.125
	c0,2.522,0,5.041,0,7.563c0,5.041,0,10.085,0,15.125s0,10.085,0,15.125c0,2.522,0,5.041,0,7.562c0,5.041,0,10.085,0,15.126
	c0,2.522,0,5.041,0,7.562c0,5.041,0,10.085,0,15.126c0,2.522,0,5.04,0,7.562c0,5.041,0,10.085,0,15.125c-2.522,0-5.041,0-7.563,0
	c0-10.085,0-20.166,0-30.251c0-5.041,0-10.085,0-15.125c0-2.522,0-5.041,0-7.563s0-5.041,0-7.563c0-5.04,0-10.085,0-15.125
	c0-2.522,0-5.041,0-7.563c0-5.041,0-10.085,0-15.125c0-2.522,0-5.041,0-7.563c0-5.041,0-10.084,0-15.125c0-2.522,0-5.041,0-7.562
	c0-5.041,0-10.085,0-15.126c0-2.522,0-5.041,0-7.562C151.255,20.166,151.255,17.647,151.255,15.126z"/>
<path fill-rule="evenodd" fill="#F7F7F2" d="M15.125,15.126c0,2.521,0,5.04,0,7.562c-2.521,0-5.04,0-7.562,0"/>
<path fill-rule="evenodd" fill="#71714D" d="M15.125,22.688c0-2.522,0-5.041,0-7.562c2.522,0,5.041,0,7.563,0
	c0,2.521,0,5.04,0,7.562C20.166,22.688,17.647,22.688,15.125,22.688z"/>
<path fill-rule="evenodd" fill="#D4D691" d="M45.376,15.126c0,2.521,0,5.04,0,7.562c-1.514,1.008-6.304-1.259-7.563,0
	c-1.259,1.259,1.008,6.049,0,7.562c-5.041,0-10.085,0-15.125,0c0-2.522,0-5.041,0-7.562c1.514-1.008,6.304,1.259,7.563,0
	c0.794-0.794-0.949-7.157,0-7.562c1.669-0.717,5.724,0,7.562,0C40.336,15.126,42.854,15.126,45.376,15.126z"/>
<path fill-rule="evenodd" fill="#E4E69F" d="M45.376,22.688c0-2.522,0-5.041,0-7.562c2.522,0,5.041,0,7.563,0
	c0,2.521,0,5.04,0,7.562C50.417,22.688,47.898,22.688,45.376,22.688z"/>
<path fill-rule="evenodd" fill="#D4D691" d="M52.939,22.688c0-2.522,0-5.041,0-7.562c2.522,0,5.04,0,7.562,0c0,2.521,0,5.04,0,7.562
	C57.979,22.688,55.461,22.688,52.939,22.688z"/>
<path fill-rule="evenodd" fill="#E4E69F" d="M60.502,22.688c0-2.522,0-5.041,0-7.562c2.522,0,5.041,0,7.562,0
	c0,2.521,0,5.04,0,7.562C65.542,22.688,63.024,22.688,60.502,22.688z"/>
<path fill-rule="evenodd" fill="#D4D691" d="M68.064,22.688c0-2.522,0-5.041,0-7.562c2.522,0,5.041,0,7.563,0
	c0,2.521,0,5.04,0,7.562C73.105,22.688,70.587,22.688,68.064,22.688z"/>
<path fill-rule="evenodd" fill="#E4E69F" d="M75.627,22.688c0-2.522,0-5.041,0-7.562c2.522,0,5.041,0,7.563,0
	c0,2.521,0,5.04,0,7.562C80.668,22.688,78.149,22.688,75.627,22.688z"/>
<path fill-rule="evenodd" fill="#D4D691" d="M83.19,22.688c0-2.522,0-5.041,0-7.562c10.085,0,20.166,0,30.251,0
	c1.008,1.514-1.259,6.303,0,7.562c0.251,0.251,7.312,0.251,7.562,0c1.26-1.259-1.008-6.049,0-7.562c2.522,0,5.041,0,7.563,0
	c0,5.04,0,10.084,0,15.125c-5.041,0-10.085,0-15.125,0c-2.522,0-5.041,0-7.562,0c-5.041,0-10.085,0-15.126,0
	c-1.008-1.514,1.259-6.304,0-7.562C89.494,21.429,84.704,23.696,83.19,22.688z"/>
<path fill-rule="evenodd" fill="#E4E69F" d="M113.441,15.126c2.522,0,5.041,0,7.562,0c-1.008,1.514,1.26,6.303,0,7.562
	c-0.251,0.251-7.312,0.251-7.562,0C112.182,21.429,114.449,16.64,113.441,15.126z"/>
<path fill-rule="evenodd" fill="#E4E69F" d="M128.567,15.126c2.522,0,5.041,0,7.563,0c0,2.521,0,5.04,0,7.562
	c0,2.522,0,5.041,0,7.562c-2.522,0-5.041,0-7.563,0C128.567,25.21,128.567,20.166,128.567,15.126z"/>
<path fill-rule="evenodd" fill="#F8F9B2" d="M136.13,22.688c0-2.522,0-5.041,0-7.562c2.522,0,5.041,0,7.562,0
	c0,2.521,0,5.04,0,7.562C141.17,22.688,138.652,22.688,136.13,22.688z"/>
<path fill-rule="evenodd" fill="#D4D691" d="M143.692,22.688c0-2.522,0-5.041,0-7.562c2.522,0,5.041,0,7.563,0
	c0,2.521,0,5.04,0,7.562C148.733,22.688,146.215,22.688,143.692,22.688z"/>
<path fill-rule="evenodd" fill="#F7F7F2" d="M7.562,22.688c0,2.522,0,5.041,0,7.562c-2.522,0-5.041,0-7.562,0"/>
<path fill-rule="evenodd" fill="#8E8F63" d="M7.562,30.251c0-2.522,0-5.041,0-7.562c2.522,0,5.041,0,7.562,0
	c2.522,0,5.041,0,7.563,0c0,2.522,0,5.041,0,7.562c-2.522,0-5.041,0-7.563,0C12.604,30.251,10.085,30.251,7.562,30.251z"/>
<path fill-rule="evenodd" fill="#E4E69F" d="M37.813,30.251c1.008-1.514-1.259-6.304,0-7.562c1.259-1.259,6.049,1.008,7.563,0
	c0,2.522,0,5.041,0,7.562C42.854,30.251,40.336,30.251,37.813,30.251z"/>
<path fill-rule="evenodd" fill="#D4D691" d="M45.376,30.251c0-2.522,0-5.041,0-7.562c2.522,0,5.041,0,7.563,0
	c0,2.522,0,5.041,0,7.562C50.417,30.251,47.898,30.251,45.376,30.251z"/>
<path fill-rule="evenodd" fill="#E4E69F" d="M52.939,30.251c0-2.522,0-5.041,0-7.562c2.522,0,5.04,0,7.562,0
	c0,2.522,0,5.041,0,7.562C57.979,30.251,55.461,30.251,52.939,30.251z"/>
<path fill-rule="evenodd" fill="#D4D691" d="M60.502,30.251c0-2.522,0-5.041,0-7.562c2.522,0,5.041,0,7.562,0
	c0,2.522,0,5.041,0,7.562C65.542,30.251,63.024,30.251,60.502,30.251z"/>
<path fill-rule="evenodd" fill="#E4E69F" d="M68.064,30.251c0-2.522,0-5.041,0-7.562c2.522,0,5.041,0,7.563,0
	c0,2.522,0,5.041,0,7.562C73.105,30.251,70.587,30.251,68.064,30.251z"/>
<path fill-rule="evenodd" fill="#D4D691" d="M75.627,30.251c0-2.522,0-5.041,0-7.562c2.522,0,5.041,0,7.563,0
	c0,2.522,0,5.041,0,7.562C80.668,30.251,78.149,30.251,75.627,30.251z"/>
<path fill-rule="evenodd" fill="#E4E69F" d="M83.19,30.251c0-2.522,0-5.041,0-7.562c1.514,1.008,6.304-1.259,7.562,0
	c1.259,1.259-1.008,6.049,0,7.562C88.231,30.251,85.712,30.251,83.19,30.251z"/>
<path fill-rule="evenodd" fill="#D4D691" d="M136.13,30.251c0-2.522,0-5.041,0-7.562c2.522,0,5.041,0,7.562,0
	c-1.008,1.514,1.259,6.304,0,7.562C142.434,31.511,137.644,29.243,136.13,30.251z"/>
<path fill-rule="evenodd" fill="#ACAE77" d="M143.692,22.688c2.522,0,5.041,0,7.563,0c0,2.522,0,5.041,0,7.562
	c0,5.041,0,10.085,0,15.126c0,2.522,0,5.04,0,7.562c0,5.041,0,10.085,0,15.125c0,2.522,0,5.041,0,7.563c0,5.041,0,10.085,0,15.125
	c0,2.522,0,5.041,0,7.563c0,5.04,0,10.085,0,15.125c-1.514,1.008-6.304-1.259-7.563,0c-0.251,0.251-0.251,7.312,0,7.563
	c1.259,1.259,6.049-1.008,7.563,0c0,2.522,0,5.041,0,7.563c0,5.041,0,10.085,0,15.125c0,10.085,0,20.166,0,30.251
	c-2.522,0-5.041,0-7.563,0c-1.038,0-6.895-0.668-7.562,0c-0.668,0.668,0,6.525,0,7.563c0,2.522,0,5.041,0,7.562
	c-2.522,0-5.041,0-7.563,0c0-5.041,0-10.085,0-15.125c0-2.522,0-5.041,0-7.563c0-5.04,0-10.085,0-15.125c0-10.085,0-20.167,0-30.251
	c0-5.041,0-10.085,0-15.125c0-2.522,0-5.041,0-7.562c0-5.041,0-10.085,0-15.126c0-10.085,0-20.166,0-30.251c0-2.522,0-5.041,0-7.562
	c0-2.522,0-5.041,0-7.563c1.514-1.008,6.304,1.259,7.563,0c1.259-1.259-1.008-6.049,0-7.563c1.514-1.008,6.304,1.26,7.562,0
	C144.952,28.992,142.685,24.202,143.692,22.688z M143.692,60.502c0.251-0.251,0.251-7.312,0-7.562s-7.312-0.251-7.562,0
	s-0.251,7.312,0,7.562C136.381,60.753,143.441,60.753,143.692,60.502z"/>
<path fill-rule="evenodd" fill="#8E8F63" d="M0,37.814c0-2.522,0-5.041,0-7.563c2.522,0,5.04,0,7.562,0c0,2.522,0,5.041,0,7.563
	C5.04,37.814,2.522,37.814,0,37.814z"/>
<path fill-rule="evenodd" fill="#ACAE77" d="M7.562,37.814c0-2.522,0-5.041,0-7.563c2.522,0,5.041,0,7.562,0
	c0,5.041,0,10.085,0,15.126c-2.521,0-5.04,0-7.562,0C7.562,42.854,7.562,40.336,7.562,37.814z"/>
<path fill-rule="evenodd" fill="#E0DFBF" d="M15.125,30.251c2.522,0,5.041,0,7.563,0c0,2.522,0,5.041,0,7.563s0,5.041,0,7.563
	c-2.522,0-5.041,0-7.563,0C15.125,40.336,15.125,35.292,15.125,30.251z"/>
<path fill-rule="evenodd" fill="#F8F9B2" d="M22.688,37.814c0-2.522,0-5.041,0-7.563c5.041,0,10.085,0,15.125,0
	c2.522,0,5.041,0,7.563,0s5.041,0,7.563,0c2.522,0,5.04,0,7.562,0s5.041,0,7.562,0c2.522,0,5.041,0,7.563,0s5.041,0,7.563,0
	c2.522,0,5.041,0,7.562,0c5.041,0,10.085,0,15.126,0c2.522,0,5.04,0,7.562,0c5.041,0,10.085,0,15.125,0c0,2.522,0,5.041,0,7.563
	c-5.041,0-10.085,0-15.125,0c-2.522,0-5.041,0-7.562,0c-2.522,0-5.041,0-7.563,0c-5.041,0-10.085,0-15.125,0
	c-5.041,0-10.085,0-15.126,0c-2.522,0-5.04,0-7.562,0s-5.041,0-7.562,0c-2.522,0-5.041,0-7.563,0s-5.041,0-7.563,0
	c-2.522,0-5.041,0-7.562,0C27.729,37.814,25.21,37.814,22.688,37.814z"/>
<path fill-rule="evenodd" fill="#D4D691" d="M128.567,37.814c0-2.522,0-5.041,0-7.563c2.522,0,5.041,0,7.563,0
	c-1.008,1.514,1.259,6.304,0,7.563C134.871,39.073,130.081,36.806,128.567,37.814z"/>
<path fill-rule="evenodd" fill="#71714D" d="M0,45.377c0-2.522,0-5.041,0-7.563c2.522,0,5.04,0,7.562,0c0,2.522,0,5.041,0,7.563
	c0,5.04,0,10.085,0,15.125c0,2.522,0,5.041,0,7.563c0,5.041,0,10.085,0,15.125c0,20.166,0,40.336,0,60.502
	c0,5.041,0,10.085,0,15.125s0,10.085,0,15.125c0,2.522,0,5.041,0,7.563c0,2.522,0,5.041,0,7.562c0,0.897-0.598,7.072,0,7.563
	c1.51,1.237,5.85-0.99,7.562,0c0,2.522,0,5.041,0,7.563c2.522,0,5.041,0,7.563,0s5.041,0,7.563,0c2.522,0,5.041,0,7.562,0
	c2.522,0,5.041,0,7.563,0s5.041,0,7.563,0c2.522,0,5.04,0,7.562,0c5.041,0,10.085,0,15.125,0c2.522,0,5.041,0,7.563,0
	c5.041,0,10.085,0,15.125,0c2.522,0,5.041,0,7.563,0c5.04,0,10.085,0,15.125,0c2.522,0,5.041,0,7.563,0c0,2.522,0,5.04,0,7.562
	c-10.085,0-20.166,0-30.251,0c-5.041,0-10.085,0-15.125,0c-5.041,0-10.085,0-15.126,0c-2.522,0-5.04,0-7.562,0
	c-5.041,0-10.085,0-15.125,0c-2.522,0-5.041,0-7.563,0c-5.041,0-10.085,0-15.125,0c-2.522,0-5.041,0-7.563,0
	c-2.521,0-5.04,0-7.562,0c-1.008-1.514,1.259-6.304,0-7.562c-1.259-1.26-6.049,1.008-7.562,0c0-2.522,0-5.041,0-7.563
	c0-5.041,0-10.085,0-15.125c0-2.522,0-5.041,0-7.563s0-5.041,0-7.563c0-5.04,0-10.085,0-15.125c0-2.522,0-5.041,0-7.563
	s0-5.041,0-7.563c0-5.041,0-10.085,0-15.125c0-2.522,0-5.041,0-7.563c0-5.04,0-10.085,0-15.125c0-2.522,0-5.041,0-7.563
	s0-5.041,0-7.563c0-2.522,0-5.041,0-7.562C0,65.543,0,55.462,0,45.377z"/>
<path fill-rule="evenodd" fill="#E4E69F" d="M22.688,45.377c0-2.522,0-5.041,0-7.563c2.522,0,5.041,0,7.563,0
	c0,2.522,0,5.041,0,7.563C27.729,45.377,25.21,45.377,22.688,45.377z"/>
<path fill-rule="evenodd" fill="#D4D691" d="M30.251,45.377c0-2.522,0-5.041,0-7.563c2.522,0,5.041,0,7.562,0
	c0,2.522,0,5.041,0,7.563C35.292,45.377,32.773,45.377,30.251,45.377z"/>
<path fill-rule="evenodd" fill="#E4E69F" d="M37.813,45.377c0-2.522,0-5.041,0-7.563c2.522,0,5.041,0,7.563,0
	c0,2.522,0,5.041,0,7.563C42.854,45.377,40.336,45.377,37.813,45.377z"/>
<path fill-rule="evenodd" fill="#D4D691" d="M45.376,45.377c0-2.522,0-5.041,0-7.563c2.522,0,5.041,0,7.563,0
	c0,2.522,0,5.041,0,7.563C50.417,45.377,47.898,45.377,45.376,45.377z"/>
<path fill-rule="evenodd" fill="#E4E69F" d="M52.939,45.377c0-2.522,0-5.041,0-7.563c2.522,0,5.04,0,7.562,0
	c0,2.522,0,5.041,0,7.563C57.979,45.377,55.461,45.377,52.939,45.377z"/>
<path fill-rule="evenodd" fill="#D4D691" d="M60.502,45.377c0-2.522,0-5.041,0-7.563c2.522,0,5.041,0,7.562,0
	c0,2.522,0,5.041,0,7.563C65.542,45.377,63.024,45.377,60.502,45.377z"/>
<path fill-rule="evenodd" fill="#E4E69F" d="M68.064,45.377c0-2.522,0-5.041,0-7.563c5.041,0,10.085,0,15.126,0
	c0,2.522,0,5.041,0,7.563C78.149,45.377,73.105,45.377,68.064,45.377z"/>
<path fill-rule="evenodd" fill="#D4D691" d="M83.19,45.377c0-2.522,0-5.041,0-7.563c5.041,0,10.085,0,15.125,0
	c0,2.522,0,5.041,0,7.563C93.275,45.377,88.231,45.377,83.19,45.377z"/>
<path fill-rule="evenodd" fill="#E4E69F" d="M98.316,45.377c0-2.522,0-5.041,0-7.563c2.522,0,5.041,0,7.563,0
	c0,2.522,0,5.041,0,7.563C103.356,45.377,100.838,45.377,98.316,45.377z"/>
<path fill-rule="evenodd" fill="#D4D691" d="M105.879,45.377c0-2.522,0-5.041,0-7.563c2.522,0,5.04,0,7.562,0
	c5.041,0,10.085,0,15.125,0c0,2.522,0,5.041,0,7.563c0,2.522,0,5.04,0,7.562c0,10.085,0,20.166,0,30.251c0,5.041,0,10.085,0,15.126
	c0,2.522,0,5.04,0,7.562c0,5.041,0,10.085,0,15.125c0,10.085,0,20.167,0,30.251c0,5.04,0,10.085,0,15.125c0,2.522,0,5.041,0,7.563
	c0,5.041,0,10.085,0,15.125c-2.522,0-5.041,0-7.563,0c0-2.522,0-5.041,0-7.562c0-2.522,0-5.041,0-7.563s0-5.041,0-7.563
	c0-2.522,0-5.04,0-7.562s0-5.041,0-7.562c0-5.041,0-10.085,0-15.126c0-2.522,0-5.041,0-7.562c0-5.041,0-10.085,0-15.126
	c0-2.522,0-5.04,0-7.562s0-5.041,0-7.562c0-2.522,0-5.041,0-7.563s0-5.041,0-7.563c0-5.041,0-10.085,0-15.125
	c0-2.522,0-5.041,0-7.563c0-2.112,0.609-5.554,0-7.562c-0.421-1.396,0.979-6.584,0-7.562c-1.259-1.26-6.049,1.008-7.562,0
	C110.919,45.377,108.401,45.377,105.879,45.377z"/>
<path fill-rule="evenodd" fill="#8E8F63" d="M7.562,45.377c2.522,0,5.041,0,7.562,0c0,5.04,0,10.085,0,15.125
	c0,5.041,0,10.085,0,15.126c0,2.522,0,5.041,0,7.562c0,2.412-0.339,5.178,0,7.563c0.34,2.385,0,5.151,0,7.563
	c0,0.897-0.598,7.071,0,7.562c1.511,1.237,5.85-0.99,7.563,0c0,2.522,0,5.041,0,7.562c-1.514,1.008-6.303-1.259-7.563,0
	c-1.259,1.26,1.009,6.049,0,7.563c0,2.522,0,5.041,0,7.563c0,20.166,0,40.336,0,60.502c0,2.522,0,5.041,0,7.563
	c-1.713-0.99-6.052,1.237-7.562,0c-0.598-0.491,0-6.666,0-7.563c0-2.522,0-5.041,0-7.562c0-2.522,0-5.041,0-7.563
	c0-5.041,0-10.085,0-15.125s0-10.085,0-15.125c0-20.167,0-40.336,0-60.502c0-5.041,0-10.085,0-15.125c0-2.522,0-5.041,0-7.563
	C7.562,55.462,7.562,50.417,7.562,45.377z"/>
<path fill-rule="evenodd" fill="#ACAE77" d="M15.125,45.377c2.522,0,5.041,0,7.563,0s5.041,0,7.563,0c2.522,0,5.041,0,7.562,0
	c2.522,0,5.041,0,7.563,0s5.041,0,7.563,0c2.522,0,5.04,0,7.562,0s5.041,0,7.562,0c5.041,0,10.085,0,15.126,0
	c5.041,0,10.085,0,15.125,0c2.522,0,5.041,0,7.563,0c0,2.522,0,5.04,0,7.562c-5.041,0-10.085,0-15.126,0c-2.522,0-5.041,0-7.562,0
	c-5.041,0-10.085,0-15.126,0c-5.04,0-10.085,0-15.125,0c-5.041,0-10.085,0-15.126,0c-2.522,0-5.041,0-7.562,0
	c-1.514,1.008-6.304-1.259-7.563,0c-0.923,0.923,0.336,6.219,0,7.562c-0.536,2.149,0,5.34,0,7.563c0,2.511,0.111,5.055,0,7.563
	c-0.111,2.507,0,5.052,0,7.562c0,2.522,0,5.041,0,7.563s0,5.041,0,7.563c0,2.522,0,5.04,0,7.562c-1.713-0.99-6.052,1.237-7.563,0
	c-0.598-0.491,0-6.666,0-7.562c0-2.412,0.34-5.178,0-7.563c-0.339-2.385,0-5.151,0-7.563c0-2.522,0-5.041,0-7.562
	c0-5.041,0-10.085,0-15.126C15.125,55.462,15.125,50.417,15.125,45.377z"/>
<path fill-rule="evenodd" fill="#71714D" d="M105.879,52.939c0-2.522,0-5.041,0-7.562c2.522,0,5.04,0,7.562,0
	c0,5.04,0,10.085,0,15.125c0,2.522,0,5.041,0,7.563s0,5.041,0,7.563c0,0.897-0.598,7.071,0,7.562c1.51,1.237,5.85-0.989,7.562,0
	c0,2.522,0,5.041,0,7.563c-1.514,1.008-6.303-1.259-7.562,0c-0.251,0.251-0.251,7.312,0,7.563c1.259,1.259,6.049-1.008,7.562,0
	c0,2.522,0,5.04,0,7.562c-2.522,0-5.04,0-7.562,0s-5.041,0-7.562,0c0-2.522,0-5.041,0-7.562c0-10.085,0-20.167,0-30.251
	c0-2.522,0-5.041,0-7.563C105.879,57.98,105.879,55.462,105.879,52.939z"/>
<path fill-rule="evenodd" fill="#8E8F63" d="M113.441,45.377c1.514,1.008,6.304-1.26,7.562,0c0.979,0.979-0.421,6.167,0,7.562
	c0.609,2.009,0,5.45,0,7.562c0,2.522,0,5.041,0,7.563c0,5.041,0,10.085,0,15.125c-1.713-0.989-6.052,1.237-7.562,0
	c-0.598-0.491,0-6.665,0-7.562c0-2.522,0-5.041,0-7.563s0-5.041,0-7.563C113.441,55.462,113.441,50.417,113.441,45.377z"/>
<path fill-rule="evenodd" fill="#E4E69F" d="M30.251,52.939c0,2.522,0,5.041,0,7.562c2.522,0,5.041,0,7.562,0
	c0,2.522,0,5.041,0,7.563c-1.514,1.008-6.304-1.259-7.562,0c-0.251,0.251-0.251,7.312,0,7.563c1.259,1.259,6.049-1.008,7.562,0
	c0,2.522,0,5.041,0,7.562c-1.514,1.008-6.304-1.259-7.562,0c-0.251,0.251-0.251,7.312,0,7.563c1.259,1.259,6.049-1.008,7.562,0
	c1.008,1.514-1.259,6.303,0,7.563c1.259,1.259,6.049-1.008,7.563,0c0,2.522,0,5.04,0,7.562c-5.041,0-10.085,0-15.125,0
	c-2.522,0-5.041,0-7.563,0c0-2.522,0-5.041,0-7.562c0-2.522,0-5.041,0-7.563s0-5.041,0-7.563c0-2.511-0.111-5.055,0-7.562
	c0.111-2.508,0-5.052,0-7.563c0-2.223-0.536-5.414,0-7.563c0.336-1.344-0.923-6.639,0-7.562
	C23.947,51.68,28.737,53.947,30.251,52.939z"/>
<path fill-rule="evenodd" fill="#F8F9B2" d="M30.251,52.939c2.522,0,5.041,0,7.562,0c5.041,0,10.085,0,15.126,0
	c5.04,0,10.085,0,15.125,0c5.041,0,10.085,0,15.126,0c2.522,0,5.041,0,7.562,0c5.041,0,10.085,0,15.126,0c0,2.522,0,5.041,0,7.562
	c-2.522,0-5.041,0-7.563,0s-5.041,0-7.563,0c-2.522,0-5.041,0-7.562,0c-2.522,0-5.041,0-7.563,0s-5.041,0-7.563,0
	c-2.522,0-5.04,0-7.562,0s-5.041,0-7.562,0c-5.041,0-10.085,0-15.126,0c-2.522,0-5.041,0-7.562,0
	C30.251,57.98,30.251,55.462,30.251,52.939z"/>
<path fill-rule="evenodd" fill="#8E8F63" d="M136.13,60.502c-0.251-0.251-0.251-7.312,0-7.562s7.312-0.251,7.562,0
	s0.251,7.312,0,7.562C143.441,60.753,136.381,60.753,136.13,60.502z"/>
<path fill-rule="evenodd" fill="#D4D691" d="M37.813,68.065c0-2.522,0-5.041,0-7.563c5.041,0,10.085,0,15.126,0
	c0,2.522,0,5.041,0,7.563c-2.522,0-5.041,0-7.563,0S40.336,68.065,37.813,68.065z"/>
<path fill-rule="evenodd" fill="#ACAE77" d="M52.939,68.065c0-2.522,0-5.041,0-7.563c2.522,0,5.04,0,7.562,0
	c0,2.522,0,5.041,0,7.563C57.979,68.065,55.461,68.065,52.939,68.065z"/>
<path fill-rule="evenodd" fill="#D4D691" d="M60.502,68.065c0-2.522,0-5.041,0-7.563c2.522,0,5.041,0,7.562,0
	c0,2.522,0,5.041,0,7.563C65.542,68.065,63.024,68.065,60.502,68.065z"/>
<path fill-rule="evenodd" fill="#ACAE77" d="M68.064,68.065c0-2.522,0-5.041,0-7.563c2.522,0,5.041,0,7.563,0
	c0,2.522,0,5.041,0,7.563C73.105,68.065,70.587,68.065,68.064,68.065z"/>
<path fill-rule="evenodd" fill="#D4D691" d="M75.627,68.065c0-2.522,0-5.041,0-7.563c2.522,0,5.041,0,7.563,0
	c0,2.522,0,5.041,0,7.563C80.668,68.065,78.149,68.065,75.627,68.065z"/>
<path fill-rule="evenodd" fill="#ACAE77" d="M83.19,68.065c0-2.522,0-5.041,0-7.563c2.522,0,5.041,0,7.562,0
	c0,2.522,0,5.041,0,7.563C88.231,68.065,85.712,68.065,83.19,68.065z"/>
<path fill-rule="evenodd" fill="#D4D691" d="M90.753,68.065c0-2.522,0-5.041,0-7.563c2.522,0,5.041,0,7.563,0
	c1.008,1.515-1.259,6.304,0,7.563s6.048-1.008,7.563,0c0,10.085,0,20.167,0,30.251c-1.515,1.008-6.304-1.26-7.563,0
	c-1.259,1.259,1.008,6.049,0,7.562c-5.041,0-10.085,0-15.125,0c-2.522,0-5.041,0-7.563,0c-5.041,0-10.085,0-15.125,0
	c0-2.522,0-5.041,0-7.562c5.041,0,10.085,0,15.125,0c2.522,0,5.041,0,7.563,0c1.038,0,6.895,0.668,7.562,0
	c1.259-1.26-1.008-6.049,0-7.563c0-2.522,0-5.041,0-7.563C90.753,78.15,90.753,73.105,90.753,68.065z"/>
<path fill-rule="evenodd" fill="#E4E69F" d="M98.316,60.502c2.522,0,5.041,0,7.563,0c0,2.522,0,5.041,0,7.563
	c-1.515-1.008-6.304,1.259-7.563,0S99.324,62.017,98.316,60.502z"/>
<path fill-rule="evenodd" fill="#D4D691" d="M37.813,68.065c0,2.522,0,5.041,0,7.563c-1.514-1.008-6.304,1.259-7.562,0
	c-0.251-0.251-0.251-7.312,0-7.563C31.51,66.806,36.3,69.073,37.813,68.065z"/>
<path fill-rule="evenodd" fill="#E4E69F" d="M37.813,75.628c0-2.522,0-5.041,0-7.563c2.522,0,5.041,0,7.563,0
	c0,2.522,0,5.041,0,7.563C42.854,75.628,40.336,75.628,37.813,75.628z"/>
<path fill-rule="evenodd" fill="#1A1A04" d="M45.376,75.628c0-2.522,0-5.041,0-7.563c2.522,0,5.041,0,7.563,0
	c2.522,0,5.04,0,7.562,0s5.041,0,7.562,0c2.522,0,5.041,0,7.563,0s5.041,0,7.563,0c0,2.522,0,5.041,0,7.563
	c-2.522,0-5.041,0-7.563,0c-5.041,0-10.085,0-15.125,0c-1.514,1.008-6.304-1.259-7.562,0c-1.26,1.259,1.008,6.049,0,7.562
	c-2.522,0-5.041,0-7.563,0C45.376,80.668,45.376,78.15,45.376,75.628z"/>
<path fill-rule="evenodd" fill="#47481D" d="M83.19,75.628c0-2.522,0-5.041,0-7.563c2.522,0,5.041,0,7.562,0
	c0,5.041,0,10.085,0,15.125c-2.522,0-5.041,0-7.562,0C83.19,80.668,83.19,78.15,83.19,75.628z"/>
<path fill-rule="evenodd" fill="#D4D691" d="M37.813,83.19c0-2.522,0-5.041,0-7.562c2.522,0,5.041,0,7.563,0
	c0,2.522,0,5.041,0,7.562C42.854,83.19,40.336,83.19,37.813,83.19z"/>
<path fill-rule="evenodd" fill="#8E8F63" d="M52.939,83.19c1.008-1.514-1.26-6.304,0-7.562c1.259-1.259,6.049,1.008,7.562,0
	c0,2.522,0,5.041,0,7.562C57.979,83.19,55.461,83.19,52.939,83.19z"/>
<path fill-rule="evenodd" fill="#ACAE77" d="M60.502,83.19c0-2.522,0-5.041,0-7.562c5.041,0,10.085,0,15.125,0
	c0,2.522,0,5.041,0,7.562c-1.514,1.008-6.303-1.259-7.563,0c-1.259,1.259,1.008,6.049,0,7.563c-2.522,0-5.04,0-7.562,0
	C60.502,88.231,60.502,85.713,60.502,83.19z"/>
<path fill-rule="evenodd" fill="#71714D" d="M75.627,83.19c0-2.522,0-5.041,0-7.562c2.522,0,5.041,0,7.563,0
	c0,2.522,0,5.041,0,7.562C80.668,83.19,78.149,83.19,75.627,83.19z"/>
<path fill-rule="evenodd" fill="#D4D691" d="M37.813,83.19c0,2.522,0,5.041,0,7.563c-1.514-1.008-6.304,1.259-7.562,0
	c-0.251-0.251-0.251-7.312,0-7.563C31.51,81.932,36.3,84.199,37.813,83.19z"/>
<path fill-rule="evenodd" fill="#E4E69F" d="M37.813,90.753c0-2.522,0-5.041,0-7.563c2.522,0,5.041,0,7.563,0
	c0,2.522,0,5.041,0,7.563C42.854,90.753,40.336,90.753,37.813,90.753z"/>
<path fill-rule="evenodd" fill="#71714D" d="M45.376,90.753c0-2.522,0-5.041,0-7.563c2.522,0,5.041,0,7.563,0
	c0,2.522,0,5.041,0,7.563C50.417,90.753,47.898,90.753,45.376,90.753z"/>
<path fill-rule="evenodd" fill="#D4D691" d="M52.939,90.753c0-2.522,0-5.041,0-7.563c2.522,0,5.04,0,7.562,0
	c0,2.522,0,5.041,0,7.563C57.979,90.753,55.461,90.753,52.939,90.753z"/>
<path fill-rule="evenodd" fill="#D4D691" d="M68.064,90.753c1.008-1.514-1.259-6.304,0-7.563c1.26-1.259,6.049,1.008,7.563,0
	c0,2.522,0,5.041,0,7.563C73.105,90.753,70.587,90.753,68.064,90.753z"/>
<path fill-rule="evenodd" fill="#ACAE77" d="M75.627,90.753c0-2.522,0-5.041,0-7.563c2.522,0,5.041,0,7.563,0
	c0,2.522,0,5.041,0,7.563C80.668,90.753,78.149,90.753,75.627,90.753z"/>
<path fill-rule="evenodd" fill="#8E8F63" d="M83.19,90.753c0-2.522,0-5.041,0-7.563c2.522,0,5.041,0,7.562,0
	c0,2.522,0,5.041,0,7.563C88.231,90.753,85.712,90.753,83.19,90.753z"/>
<path fill-rule="evenodd" fill="#D4D691" d="M37.813,90.753c2.522,0,5.041,0,7.563,0c0,2.522,0,5.041,0,7.563
	c-1.514-1.008-6.304,1.259-7.563,0C36.555,97.057,38.822,92.268,37.813,90.753z"/>
<path fill-rule="evenodd" fill="#E4E69F" d="M45.376,98.316c0-2.522,0-5.041,0-7.563c2.522,0,5.041,0,7.563,0
	c0,2.522,0,5.041,0,7.563C50.417,98.316,47.898,98.316,45.376,98.316z"/>
<path fill-rule="evenodd" fill="#F8F9B2" d="M52.939,98.316c0-2.522,0-5.041,0-7.563c2.522,0,5.04,0,7.562,0s5.041,0,7.562,0
	c2.522,0,5.041,0,7.563,0c0,2.522,0,5.041,0,7.563c-5.041,0-10.085,0-15.125,0C57.979,98.316,55.461,98.316,52.939,98.316z"/>
<path fill-rule="evenodd" fill="#E4E69F" d="M75.627,98.316c0-2.522,0-5.041,0-7.563c2.522,0,5.041,0,7.563,0
	c2.522,0,5.041,0,7.562,0c-1.008,1.514,1.259,6.303,0,7.563c-0.668,0.668-6.525,0-7.562,0
	C80.668,98.316,78.149,98.316,75.627,98.316z"/>
<path fill-rule="evenodd" fill="#8E8F63" d="M121.004,90.753c0,2.522,0,5.041,0,7.563c-1.514-1.008-6.303,1.259-7.562,0
	c-0.251-0.251-0.251-7.312,0-7.563C114.701,89.494,119.49,91.762,121.004,90.753z"/>
<path fill-rule="evenodd" fill="#D4D691" d="M45.376,105.879c0-2.522,0-5.041,0-7.562c2.522,0,5.041,0,7.563,0
	c0,2.522,0,5.04,0,7.562C50.417,105.879,47.898,105.879,45.376,105.879z"/>
<path fill-rule="evenodd" fill="#E4E69F" d="M52.939,105.879c0-2.522,0-5.041,0-7.562c2.522,0,5.04,0,7.562,0
	c0,2.522,0,5.04,0,7.562C57.979,105.879,55.461,105.879,52.939,105.879z"/>
<path fill-rule="evenodd" fill="#E4E69F" d="M98.316,105.879c1.008-1.514-1.259-6.304,0-7.562c1.259-1.26,6.048,1.008,7.563,0
	c0,2.522,0,5.04,0,7.562C103.356,105.879,100.838,105.879,98.316,105.879z"/>
<path fill-rule="evenodd" fill="#71714D" d="M22.688,113.441c0-2.522,0-5.04,0-7.562c2.522,0,5.041,0,7.563,0
	c5.041,0,10.085,0,15.125,0c2.522,0,5.041,0,7.563,0c2.522,0,5.04,0,7.562,0c5.041,0,10.085,0,15.125,0c2.522,0,5.041,0,7.563,0
	c5.041,0,10.085,0,15.125,0c2.522,0,5.041,0,7.563,0c0,2.522,0,5.041,0,7.562c-2.522,0-5.041,0-7.563,0
	c-1.038,0-6.895-0.668-7.563,0c-1.259,1.26,1.008,6.049,0,7.563c-2.522,0-5.041,0-7.562,0c-1.008-1.514,1.259-6.303,0-7.563
	c-0.251-0.251-7.312-0.251-7.563,0c-1.259,1.26,1.008,6.049,0,7.563c-2.522,0-5.041,0-7.563,0c-1.008-1.514,1.26-6.303,0-7.563
	c-0.251-0.251-7.312-0.251-7.562,0c-1.259,1.26,1.008,6.049,0,7.563c-2.522,0-5.041,0-7.562,0c-1.008-1.514,1.259-6.303,0-7.563
	c-0.251-0.251-7.312-0.251-7.563,0c-1.259,1.26,1.008,6.049,0,7.563c-2.522,0-5.041,0-7.563,0c-1.008-1.514,1.259-6.303,0-7.563
	c-0.251-0.251-7.312-0.251-7.562,0c-1.259,1.26,1.008,6.049,0,7.563c-2.522,0-5.041,0-7.563,0
	C22.688,118.482,22.688,115.964,22.688,113.441z"/>
<path fill-rule="evenodd" fill="#47481D" d="M105.879,113.441c0-2.522,0-5.04,0-7.562c2.522,0,5.04,0,7.562,0
	c0,2.522,0,5.041,0,7.562C110.919,113.441,108.401,113.441,105.879,113.441z"/>
<path fill-rule="evenodd" fill="#8E8F63" d="M113.441,113.441c0-2.522,0-5.04,0-7.562c2.522,0,5.041,0,7.562,0
	c0,2.522,0,5.041,0,7.562C118.482,113.441,115.964,113.441,113.441,113.441z"/>
<path fill-rule="evenodd" fill="#ACAE77" d="M15.125,121.004c1.009-1.514-1.259-6.303,0-7.563c1.26-1.259,6.049,1.008,7.563,0
	c0,2.522,0,5.041,0,7.563C20.166,121.004,17.647,121.004,15.125,121.004z"/>
<path fill-rule="evenodd" fill="#8E8F63" d="M30.251,121.004c1.008-1.514-1.259-6.303,0-7.563c0.251-0.251,7.312-0.251,7.562,0
	c1.259,1.26-1.008,6.049,0,7.563C35.292,121.004,32.773,121.004,30.251,121.004z"/>
<path fill-rule="evenodd" fill="#8E8F63" d="M45.376,121.004c1.008-1.514-1.259-6.303,0-7.563c0.251-0.251,7.312-0.251,7.563,0
	c1.259,1.26-1.008,6.049,0,7.563C50.417,121.004,47.898,121.004,45.376,121.004z"/>
<path fill-rule="evenodd" fill="#8E8F63" d="M60.502,121.004c1.008-1.514-1.259-6.303,0-7.563c0.251-0.251,7.312-0.251,7.562,0
	c1.26,1.26-1.008,6.049,0,7.563C65.542,121.004,63.024,121.004,60.502,121.004z"/>
<path fill-rule="evenodd" fill="#8E8F63" d="M75.627,121.004c1.008-1.514-1.259-6.303,0-7.563c0.251-0.251,7.312-0.251,7.563,0
	c1.259,1.26-1.008,6.049,0,7.563C80.668,121.004,78.149,121.004,75.627,121.004z"/>
<path fill-rule="evenodd" fill="#8E8F63" d="M90.753,121.004c1.008-1.514-1.259-6.303,0-7.563c0.668-0.668,6.525,0,7.563,0
	c2.522,0,5.041,0,7.563,0c0,2.522,0,5.041,0,7.563C100.838,121.004,95.794,121.004,90.753,121.004z"/>
<path fill-rule="evenodd" fill="#71714D" d="M105.879,121.004c0-2.522,0-5.041,0-7.563c2.522,0,5.04,0,7.562,0
	c0,2.522,0,5.041,0,7.563C110.919,121.004,108.401,121.004,105.879,121.004z"/>
<path fill-rule="evenodd" fill="#ACAE77" d="M113.441,121.004c0-2.522,0-5.041,0-7.563c2.522,0,5.041,0,7.562,0
	c0,5.041,0,10.085,0,15.126c-2.522,0-5.04,0-7.562,0C113.441,126.045,113.441,123.526,113.441,121.004z"/>
<path fill-rule="evenodd" fill="#8E8F63" d="M151.255,113.441c0,2.522,0,5.041,0,7.563c-1.514-1.008-6.304,1.259-7.563,0
	c-0.251-0.251-0.251-7.312,0-7.563C144.952,112.183,149.741,114.45,151.255,113.441z"/>
<path fill-rule="evenodd" fill="#D4D691" d="M15.125,128.567c0-2.522,0-5.041,0-7.563c2.522,0,5.041,0,7.563,0
	c0,2.522,0,5.041,0,7.563C20.166,128.567,17.647,128.567,15.125,128.567z"/>
<path fill-rule="evenodd" fill="#ACAE77" d="M22.688,128.567c0-2.522,0-5.041,0-7.563c2.522,0,5.041,0,7.563,0
	c2.522,0,5.041,0,7.562,0c2.522,0,5.041,0,7.563,0s5.041,0,7.563,0c2.522,0,5.04,0,7.562,0c0,2.522,0,5.041,0,7.563
	c-5.041,0-10.085,0-15.125,0s-10.085,0-15.125,0C27.729,128.567,25.21,128.567,22.688,128.567z"/>
<path fill-rule="evenodd" fill="#D4D691" d="M60.502,128.567c0-2.522,0-5.041,0-7.563c2.522,0,5.041,0,7.562,0
	c0,2.522,0,5.041,0,7.563C65.542,128.567,63.024,128.567,60.502,128.567z"/>
<path fill-rule="evenodd" fill="#ACAE77" d="M68.064,128.567c0-2.522,0-5.041,0-7.563c2.522,0,5.041,0,7.563,0s5.041,0,7.563,0
	c2.522,0,5.041,0,7.562,0c5.041,0,10.085,0,15.126,0c0,2.522,0,5.041,0,7.563c-10.085,0-20.167,0-30.251,0
	C73.105,128.567,70.587,128.567,68.064,128.567z"/>
<path fill-rule="evenodd" fill="#8E8F63" d="M105.879,128.567c0-2.522,0-5.041,0-7.563c2.522,0,5.04,0,7.562,0
	c0,2.522,0,5.041,0,7.563C110.919,128.567,108.401,128.567,105.879,128.567z"/>
<path fill-rule="evenodd" fill="#ACAE77" d="M15.125,128.567c2.522,0,5.041,0,7.563,0c0,2.522,0,5.041,0,7.562
	c0,2.522,0,5.041,0,7.563s0,5.041,0,7.563c0,5.04,0,10.085,0,15.125c0,2.522,0,5.041,0,7.563c1.008,1.514-1.259,6.304,0,7.563
	c0.668,0.668,6.525,0,7.563,0c2.522,0,5.041,0,7.562,0c2.522,0,5.041,0,7.563,0s5.041,0,7.563,0c2.522,0,5.04,0,7.562,0
	s5.041,0,7.562,0c2.522,0,5.041,0,7.563,0s5.041,0,7.563,0c2.522,0,5.041,0,7.562,0c2.522,0,5.041,0,7.563,0s5.041,0,7.563,0
	c-1.008,1.514,1.259,6.304,0,7.562c-0.717,0.717-6.459-0.059-7.563,0c-2.515,0.133-5.048-0.107-7.563,0c-5.041,0-10.085,0-15.125,0
	c-10.085,0-20.166,0-30.251,0c-5.041,0-10.085,0-15.125,0c-2.522,0-5.041,0-7.563,0s-5.041,0-7.563,0
	C15.125,168.903,15.125,148.733,15.125,128.567z"/>
<path fill-rule="evenodd" fill="#D4D691" d="M22.688,136.13c0-2.522,0-5.041,0-7.562c2.522,0,5.041,0,7.563,0
	c-1.008,1.514,1.259,6.304,0,7.562C28.992,137.389,24.202,135.122,22.688,136.13z"/>
<path fill-rule="evenodd" fill="#E4E69F" d="M30.251,128.567c5.041,0,10.085,0,15.125,0c-1.008,1.514,1.259,6.304,0,7.562
	c-1.259,1.259-6.304-1.259-7.563,0c-1.259,1.259,1.008,6.049,0,7.563c1.008,1.514-1.259,6.303,0,7.563
	c1.259,1.259,6.049-1.008,7.563,0c0,2.522,0,5.04,0,7.562c-1.514,1.008-6.304-1.259-7.563,0c-1.259,1.259,1.008,6.049,0,7.562
	c-2.522,0-5.041,0-7.562,0c-2.522,0-5.041,0-7.563,0c0-5.04,0-10.085,0-15.125c2.522,0,5.041,0,7.563,0
	c-1.008-1.515,1.259-6.304,0-7.563c-1.259-1.259-6.049,1.008-7.563,0c0-2.522,0-5.041,0-7.563c1.514-1.008,6.304,1.259,7.563,0
	C31.51,134.871,29.243,130.081,30.251,128.567z"/>
<path fill-rule="evenodd" fill="#E0DFBF" d="M45.376,128.567c5.041,0,10.085,0,15.125,0c2.522,0,5.041,0,7.562,0
	c2.522,0,5.041,0,7.563,0c0,5.041,0,10.085,0,15.125c-2.522,0-5.041,0-7.563,0c-5.04,0-10.085,0-15.125,0c-2.522,0-5.041,0-7.563,0
	s-5.041,0-7.563,0c1.008-1.514-1.259-6.304,0-7.563c1.259-1.259,6.304,1.259,7.563,0C46.636,134.871,44.368,130.081,45.376,128.567z
	"/>
<path fill-rule="evenodd" fill="#E4E69F" d="M75.627,128.567c10.085,0,20.167,0,30.251,0c0,5.041,0,10.085,0,15.125
	c0,2.522,0,5.041,0,7.563c-1.515-1.008-6.304,1.259-7.563,0c-1.259-1.26,1.259-6.304,0-7.563s-6.049,1.008-7.563,0
	c-2.522,0-5.041,0-7.562,0c-2.522,0-5.041,0-7.563,0C75.627,138.652,75.627,133.608,75.627,128.567z"/>
<path fill-rule="evenodd" fill="#71714D" d="M105.879,128.567c2.522,0,5.04,0,7.562,0c0,2.522,0,5.041,0,7.562
	c0,2.522,0,5.041,0,7.563c0,0.897-0.598,7.072,0,7.563c1.51,1.237,5.85-0.99,7.562,0c0,2.522,0,5.04,0,7.562
	c-1.514,1.008-6.303-1.259-7.562,0c-0.251,0.251-0.251,7.312,0,7.562c1.259,1.26,6.049-1.008,7.562,0c0,2.522,0,5.041,0,7.563
	c-1.514,1.008-6.303-1.259-7.562,0s1.008,6.049,0,7.563c-2.522,0-5.041,0-7.562,0c0-2.522,0-5.041,0-7.563s0-5.041,0-7.563
	c0-5.04,0-10.085,0-15.125c0-2.522,0-5.041,0-7.563C105.879,138.652,105.879,133.608,105.879,128.567z"/>
<path fill-rule="evenodd" fill="#8E8F63" d="M113.441,128.567c2.522,0,5.041,0,7.562,0c0,2.522,0,5.041,0,7.562
	c0,5.041,0,10.085,0,15.126c-1.713-0.99-6.052,1.237-7.562,0c-0.598-0.491,0-6.666,0-7.563c0-2.522,0-5.041,0-7.563
	C113.441,133.608,113.441,131.089,113.441,128.567z"/>
<path fill-rule="evenodd" fill="#F8F9B2" d="M22.688,151.256c0-2.522,0-5.041,0-7.563c1.514,1.008,6.304-1.259,7.563,0
	c1.259,1.259-1.008,6.048,0,7.563C27.729,151.256,25.21,151.256,22.688,151.256z"/>
<path fill-rule="evenodd" fill="#D4D691" d="M37.813,143.693c2.522,0,5.041,0,7.563,0c0,2.522,0,5.041,0,7.563
	c-1.514-1.008-6.304,1.259-7.563,0C36.555,149.996,38.822,145.207,37.813,143.693z"/>
<path fill-rule="evenodd" fill="#1A1A04" d="M45.376,151.256c0-2.522,0-5.041,0-7.563c2.522,0,5.041,0,7.563,0
	c5.04,0,10.085,0,15.125,0c0,2.522,0,5.041,0,7.563c-2.522,0-5.04,0-7.562,0c-1.038,0-6.895-0.669-7.562,0
	c-1.26,1.259,1.008,6.049,0,7.562c0,2.522,0,5.041,0,7.562c-2.522,0-5.041,0-7.563,0c0-2.522,0-5.04,0-7.562
	S45.376,153.778,45.376,151.256z"/>
<path fill-rule="evenodd" fill="#47481D" d="M68.064,151.256c0-2.522,0-5.041,0-7.563c2.522,0,5.041,0,7.563,0s5.041,0,7.563,0
	c0,2.522,0,5.041,0,7.563c-2.522,0-5.041,0-7.563,0S70.587,151.256,68.064,151.256z"/>
<path fill-rule="evenodd" fill="#71714D" d="M83.19,151.256c0-2.522,0-5.041,0-7.563c2.522,0,5.041,0,7.562,0
	c0,2.522,0,5.041,0,7.563C88.231,151.256,85.712,151.256,83.19,151.256z"/>
<path fill-rule="evenodd" fill="#D4D691" d="M90.753,151.256c0-2.522,0-5.041,0-7.563c1.514,1.008,6.304-1.259,7.563,0
	s-1.259,6.303,0,7.563c1.259,1.259,6.048-1.008,7.563,0c0,5.04,0,10.085,0,15.125c-2.522,0-5.041,0-7.563,0
	c-1.008-1.514,1.259-6.303,0-7.562s-6.049,1.008-7.563,0C90.753,156.296,90.753,153.778,90.753,151.256z"/>
<path fill-rule="evenodd" fill="#8E8F63" d="M52.939,158.818c1.008-1.514-1.26-6.304,0-7.562c0.668-0.669,6.525,0,7.562,0
	c2.522,0,5.041,0,7.562,0c2.522,0,5.041,0,7.563,0c0,2.522,0,5.04,0,7.562c-5.041,0-10.085,0-15.125,0
	C57.979,158.818,55.461,158.818,52.939,158.818z"/>
<path fill-rule="evenodd" fill="#71714D" d="M75.627,158.818c0-2.522,0-5.041,0-7.562c2.522,0,5.041,0,7.563,0
	c0,5.04,0,10.085,0,15.125c-2.522,0-5.041,0-7.563,0C75.627,163.859,75.627,161.341,75.627,158.818z"/>
<path fill-rule="evenodd" fill="#47481D" d="M83.19,151.256c2.522,0,5.041,0,7.562,0c0,2.522,0,5.04,0,7.562s0,5.041,0,7.562
	c-2.522,0-5.041,0-7.562,0C83.19,161.341,83.19,156.296,83.19,151.256z"/>
<path fill-rule="evenodd" fill="#D4D691" d="M37.813,166.381c1.008-1.514-1.259-6.303,0-7.562c1.259-1.259,6.049,1.008,7.563,0
	c0,2.522,0,5.041,0,7.562C42.854,166.381,40.336,166.381,37.813,166.381z"/>
<path fill-rule="evenodd" fill="#ACAE77" d="M52.939,166.381c0-2.522,0-5.04,0-7.562c2.522,0,5.04,0,7.562,0
	c5.041,0,10.085,0,15.125,0c0,2.522,0,5.041,0,7.562c-5.041,0-10.085,0-15.125,0C57.979,166.381,55.461,166.381,52.939,166.381z"/>
<path fill-rule="evenodd" fill="#E4E69F" d="M90.753,166.381c0-2.522,0-5.04,0-7.562c1.514,1.008,6.304-1.259,7.563,0
	s-1.008,6.049,0,7.562C95.794,166.381,93.275,166.381,90.753,166.381z"/>
<path fill-rule="evenodd" fill="#8E8F63" d="M121.004,158.818c0,2.522,0,5.041,0,7.562c-1.514-1.008-6.303,1.26-7.562,0
	c-0.251-0.251-0.251-7.312,0-7.562C114.701,157.559,119.49,159.826,121.004,158.818z"/>
<path fill-rule="evenodd" fill="#F8F9B2" d="M22.688,173.944c0-2.522,0-5.041,0-7.563c2.522,0,5.041,0,7.563,0
	c0,2.522,0,5.041,0,7.563C27.729,173.944,25.21,173.944,22.688,173.944z"/>
<path fill-rule="evenodd" fill="#D4D691" d="M30.251,173.944c0-2.522,0-5.041,0-7.563c2.522,0,5.041,0,7.562,0
	c0,2.522,0,5.041,0,7.563C35.292,173.944,32.773,173.944,30.251,173.944z"/>
<path fill-rule="evenodd" fill="#E4E69F" d="M37.813,173.944c0-2.522,0-5.041,0-7.563c2.522,0,5.041,0,7.563,0
	c0,2.522,0,5.041,0,7.563C42.854,173.944,40.336,173.944,37.813,173.944z"/>
<path fill-rule="evenodd" fill="#F8F9B2" d="M45.376,173.944c0-2.522,0-5.041,0-7.563c2.522,0,5.041,0,7.563,0
	c2.522,0,5.04,0,7.562,0c5.041,0,10.085,0,15.125,0c2.522,0,5.041,0,7.563,0c2.522,0,5.041,0,7.562,0c0,2.522,0,5.041,0,7.563
	c-2.522,0-5.041,0-7.562,0c-2.522,0-5.041,0-7.563,0s-5.041,0-7.563,0c-2.522,0-5.04,0-7.562,0s-5.041,0-7.562,0
	C50.417,173.944,47.898,173.944,45.376,173.944z"/>
<path fill-rule="evenodd" fill="#D4D691" d="M90.753,173.944c0-2.522,0-5.041,0-7.563c2.522,0,5.041,0,7.563,0
	c0,2.522,0,5.041,0,7.563C95.794,173.944,93.275,173.944,90.753,173.944z"/>
<path fill-rule="evenodd" fill="#E4E69F" d="M98.316,173.944c0-2.522,0-5.041,0-7.563c2.522,0,5.041,0,7.563,0
	c0,2.522,0,5.041,0,7.563C103.356,173.944,100.838,173.944,98.316,173.944z"/>
<path fill-rule="evenodd" fill="#E4E69F" d="M22.688,173.944c2.522,0,5.041,0,7.563,0c2.522,0,5.041,0,7.562,0
	c0,2.522,0,5.041,0,7.563c-2.522,0-5.041,0-7.562,0c-1.038,0-6.895,0.668-7.563,0C21.429,180.248,23.696,175.458,22.688,173.944z"/>
<path fill-rule="evenodd" fill="#D4D691" d="M37.813,181.507c0-2.522,0-5.041,0-7.563c2.522,0,5.041,0,7.563,0
	c0,2.522,0,5.041,0,7.563C42.854,181.507,40.336,181.507,37.813,181.507z"/>
<path fill-rule="evenodd" fill="#E4E69F" d="M45.376,181.507c0-2.522,0-5.041,0-7.563c2.522,0,5.041,0,7.563,0
	c0,2.522,0,5.041,0,7.563C50.417,181.507,47.898,181.507,45.376,181.507z"/>
<path fill-rule="evenodd" fill="#D4D691" d="M52.939,181.507c0-2.522,0-5.041,0-7.563c2.522,0,5.04,0,7.562,0
	c0,2.522,0,5.041,0,7.563C57.979,181.507,55.461,181.507,52.939,181.507z"/>
<path fill-rule="evenodd" fill="#E4E69F" d="M60.502,181.507c0-2.522,0-5.041,0-7.563c2.522,0,5.041,0,7.562,0
	c0,2.522,0,5.041,0,7.563C65.542,181.507,63.024,181.507,60.502,181.507z"/>
<path fill-rule="evenodd" fill="#D4D691" d="M68.064,181.507c0-2.522,0-5.041,0-7.563c2.522,0,5.041,0,7.563,0
	c0,2.522,0,5.041,0,7.563C73.105,181.507,70.587,181.507,68.064,181.507z"/>
<path fill-rule="evenodd" fill="#E4E69F" d="M75.627,181.507c0-2.522,0-5.041,0-7.563c2.522,0,5.041,0,7.563,0
	c0,2.522,0,5.041,0,7.563C80.668,181.507,78.149,181.507,75.627,181.507z"/>
<path fill-rule="evenodd" fill="#D4D691" d="M83.19,181.507c0-2.522,0-5.041,0-7.563c2.522,0,5.041,0,7.562,0
	c0,2.522,0,5.041,0,7.563C88.231,181.507,85.712,181.507,83.19,181.507z"/>
<path fill-rule="evenodd" fill="#E4E69F" d="M90.753,181.507c0-2.522,0-5.041,0-7.563c2.522,0,5.041,0,7.563,0
	c0,2.522,0,5.041,0,7.563C95.794,181.507,93.275,181.507,90.753,181.507z"/>
<path fill-rule="evenodd" fill="#D4D691" d="M98.316,181.507c0-2.522,0-5.041,0-7.563c2.522,0,5.041,0,7.563,0
	c0,2.522,0,5.041,0,7.563C103.356,181.507,100.838,181.507,98.316,181.507z"/>
<path fill-rule="evenodd" fill="#8E8F63" d="M113.441,181.507c1.008-1.514-1.259-6.304,0-7.563s6.049,1.008,7.562,0
	c0,2.522,0,5.041,0,7.563C118.482,181.507,115.964,181.507,113.441,181.507z"/>
<path fill-rule="evenodd" fill="#8E8F63" d="M151.255,173.944c0,2.522,0,5.041,0,7.563c-1.514,1.008-6.304-1.259-7.563,0
	c-1.259,1.259,1.008,6.049,0,7.562c-2.522,0-5.041,0-7.562,0c0-2.522,0-5.041,0-7.562c0-1.038-0.668-6.895,0-7.563
	c0.668-0.668,6.525,0,7.562,0C146.215,173.944,148.733,173.944,151.255,173.944z"/>
<path fill-rule="evenodd" fill="#47481D" d="M151.255,181.507c0-2.522,0-5.041,0-7.563c2.522,0,5.041,0,7.563,0
	c0,2.522,0,5.041,0,7.563C156.296,181.507,153.777,181.507,151.255,181.507z"/>
<path fill-rule="evenodd" fill="#47481D" d="M105.879,181.507c2.522,0,5.04,0,7.562,0c0,2.522,0,5.041,0,7.562
	c0,2.522,0,5.041,0,7.563c-2.522,0-5.041,0-7.562,0c-2.522,0-5.041,0-7.563,0c-5.041,0-10.085,0-15.125,0c-2.522,0-5.041,0-7.563,0
	c-5.041,0-10.085,0-15.125,0c-2.522,0-5.041,0-7.562,0c-2.522,0-5.041,0-7.563,0s-5.041,0-7.563,0c-2.522,0-5.041,0-7.562,0
	c-2.522,0-5.041,0-7.563,0c0-2.522,0-5.041,0-7.563c2.522,0,5.041,0,7.563,0c5.041,0,10.085,0,15.125,0c10.085,0,20.166,0,30.251,0
	c5.041,0,10.085,0,15.125,0c2.515-0.107,5.048,0.133,7.563,0c1.104-0.059,6.846,0.717,7.563,0
	C107.138,187.811,104.871,183.021,105.879,181.507z"/>
<path fill-rule="evenodd" fill="#71714D" d="M113.441,189.069c0-2.522,0-5.041,0-7.562c2.522,0,5.041,0,7.562,0
	c0,2.522,0,5.041,0,7.562C118.482,189.069,115.964,189.069,113.441,189.069z"/>
<path fill-rule="evenodd" fill="#47481D" d="M143.692,189.069c1.008-1.514-1.259-6.304,0-7.562c1.259-1.259,6.049,1.008,7.563,0
	c0,2.522,0,5.041,0,7.562C148.733,189.069,146.215,189.069,143.692,189.069z"/>
<path fill-rule="evenodd" fill="#F7F7F2" d="M151.255,196.632c0-2.522,0-5.041,0-7.563c0-2.522,0-5.041,0-7.562
	c2.522,0,5.041,0,7.563,0"/>
<path fill-rule="evenodd" fill="#71714D" d="M15.125,196.632c0-2.522,0-5.041,0-7.563c2.522,0,5.041,0,7.563,0
	c0,2.522,0,5.041,0,7.563C20.166,196.632,17.647,196.632,15.125,196.632z"/>
<path fill-rule="evenodd" fill="#ACAE77" d="M113.441,196.632c0-2.522,0-5.041,0-7.563c2.522,0,5.041,0,7.562,0
	c0,2.522,0,5.041,0,7.563C118.482,196.632,115.964,196.632,113.441,196.632z"/>
<path fill-rule="evenodd" fill="#E0DFBF" d="M121.004,196.632c0-2.522,0-5.041,0-7.563c2.522,0,5.041,0,7.563,0
	c0,2.522,0,5.041,0,7.563C126.045,196.632,123.526,196.632,121.004,196.632z"/>
<path fill-rule="evenodd" fill="#8E8F63" d="M128.567,196.632c0-2.522,0-5.041,0-7.563c2.522,0,5.041,0,7.563,0
	c0,2.522,0,5.041,0,7.563C133.607,196.632,131.089,196.632,128.567,196.632z"/>
<path fill-rule="evenodd" fill="#47481D" d="M136.13,196.632c0-2.522,0-5.041,0-7.563c2.522,0,5.041,0,7.562,0
	c0,2.522,0,5.041,0,7.563C141.17,196.632,138.652,196.632,136.13,196.632z"/>
<path fill-rule="evenodd" fill="#E0DFBF" d="M143.692,196.632c0-2.522,0-5.041,0-7.563c2.522,0,5.041,0,7.563,0
	c0,2.522,0,5.041,0,7.563C148.733,196.632,146.215,196.632,143.692,196.632z"/>
<path fill-rule="evenodd" fill="#8E8F63" d="M15.125,196.632c2.522,0,5.041,0,7.563,0c0,2.522,0,5.041,0,7.563
	c-2.522,0-5.041,0-7.563,0C15.125,201.673,15.125,199.154,15.125,196.632z"/>
<path fill-rule="evenodd" fill="#ACAE77" d="M22.688,204.195c0-2.522,0-5.041,0-7.563c2.522,0,5.041,0,7.563,0
	c0,2.522,0,5.041,0,7.563C27.729,204.195,25.21,204.195,22.688,204.195z"/>
<path fill-rule="evenodd" fill="#8E8F63" d="M30.251,204.195c0-2.522,0-5.041,0-7.563c2.522,0,5.041,0,7.562,0
	c0,2.522,0,5.041,0,7.563C35.292,204.195,32.773,204.195,30.251,204.195z"/>
<path fill-rule="evenodd" fill="#ACAE77" d="M37.813,204.195c0-2.522,0-5.041,0-7.563c2.522,0,5.041,0,7.563,0
	c0,2.522,0,5.041,0,7.563C42.854,204.195,40.336,204.195,37.813,204.195z"/>
<path fill-rule="evenodd" fill="#8E8F63" d="M45.376,204.195c0-2.522,0-5.041,0-7.563c2.522,0,5.041,0,7.563,0
	c0,2.522,0,5.041,0,7.563C50.417,204.195,47.898,204.195,45.376,204.195z"/>
<path fill-rule="evenodd" fill="#ACAE77" d="M52.939,204.195c0-2.522,0-5.041,0-7.563c2.522,0,5.04,0,7.562,0
	c0,2.522,0,5.041,0,7.563C57.979,204.195,55.461,204.195,52.939,204.195z"/>
<path fill-rule="evenodd" fill="#8E8F63" d="M60.502,204.195c0-2.522,0-5.041,0-7.563c5.041,0,10.085,0,15.125,0
	c2.522,0,5.041,0,7.563,0c5.041,0,10.085,0,15.125,0c0,2.522,0,5.041,0,7.563c-5.041,0-10.085,0-15.125,0c-2.522,0-5.041,0-7.563,0
	C70.587,204.195,65.542,204.195,60.502,204.195z"/>
<path fill-rule="evenodd" fill="#ACAE77" d="M98.316,204.195c0-2.522,0-5.041,0-7.563c2.522,0,5.041,0,7.563,0
	c0,2.522,0,5.041,0,7.563C103.356,204.195,100.838,204.195,98.316,204.195z"/>
<path fill-rule="evenodd" fill="#8E8F63" d="M105.879,204.195c0-2.522,0-5.041,0-7.563c2.522,0,5.04,0,7.562,0s5.041,0,7.562,0
	c2.522,0,5.041,0,7.563,0c0,2.522,0,5.041,0,7.563c-2.522,0-5.041,0-7.563,0C115.964,204.195,110.919,204.195,105.879,204.195z"/>
<path fill-rule="evenodd" fill="#71714D" d="M128.567,204.195c0-2.522,0-5.041,0-7.563c2.522,0,5.041,0,7.563,0
	c0,2.522,0,5.041,0,7.563C133.607,204.195,131.089,204.195,128.567,204.195z"/>
<path fill-rule="evenodd" fill="#E0DFBF" d="M136.13,204.195c0-2.522,0-5.041,0-7.563c2.522,0,5.041,0,7.562,0
	c0,2.522,0,5.041,0,7.563C141.17,204.195,138.652,204.195,136.13,204.195z"/>
<path fill-rule="evenodd" fill="#FEFEFE" d="M143.692,204.195c0-2.522,0-5.041,0-7.563c2.522,0,5.041,0,7.563,0"/>
<path fill-rule="evenodd" fill="#ACAE77" d="M0,211.758c0-2.522,0-5.041,0-7.562c1.514,1.008,6.303-1.26,7.562,0
	c1.259,1.259-1.008,6.048,0,7.562C5.04,211.758,2.522,211.758,0,211.758z"/>
<path fill-rule="evenodd" fill="#E0DFBF" d="M128.567,211.758c0-2.522,0-5.041,0-7.562c2.522,0,5.041,0,7.563,0
	c0,2.522,0,5.04,0,7.562C133.607,211.758,131.089,211.758,128.567,211.758z"/>
<path fill-rule="evenodd" fill="#F7F7F2" d="M136.13,211.758c0-2.522,0-5.041,0-7.562c2.522,0,5.041,0,7.562,0"/>
</svg>
